HIERARCHY
ROOT Hips
{
	OFFSET -6.248921 106.853722 -1.149291
	CHANNELS 6 Xposition Yposition Zposition Xrotation Yrotation Zrotation
	JOINT Chest
	{
		OFFSET 1.069945 13.577881 0.806630
		CHANNELS 3 Xrotation Yrotation Zrotation
		JOINT Chest2
		{
			OFFSET 0.943464 21.265327 2.441797
			CHANNELS 3 Xrotation Yrotation Zrotation
			JOINT Chest3
			{
				OFFSET 0.767532 14.906601 0.155561
				CHANNELS 3 Xrotation Yrotation Zrotation
				JOINT Neck
				{
					OFFSET 1.244353 17.185684 1.311415
					CHANNELS 3 Xrotation Yrotation Zrotation
					JOINT Head
					{
						OFFSET 0.804380 10.206802 2.236470
						CHANNELS 3 Xrotation Yrotation Zrotation
						End Site
						{
							OFFSET 0.809765 10.221756 2.165128
						}
					}
				}
				JOINT LeftCollar
				{
					OFFSET 5.264602 12.668823 3.686355
					CHANNELS 3 Xrotation Yrotation Zrotation
					JOINT LeftUpArm
					{
						OFFSET 14.937725 -2.950623 -8.755428
						CHANNELS 3 Xrotation Yrotation Zrotation
						JOINT LeftLowArm
						{
							OFFSET 29.295467 -16.187729 4.411459
							CHANNELS 3 Xrotation Yrotation Zrotation
							JOINT LeftHand
							{
								OFFSET 16.211964 13.473419 21.367863
								CHANNELS 3 Xrotation Yrotation Zrotation
								End Site
								{
									OFFSET 3.543217 2.944717 4.670061
								}
							}
						}
					}
				}
				JOINT RightCollar
				{
					OFFSET -3.123309 13.246979 4.070764
					CHANNELS 3 Xrotation Yrotation Zrotation
					JOINT RightUpArm
					{
						OFFSET -14.998390 -4.438599 -7.990216
						CHANNELS 3 Xrotation Yrotation Zrotation
						JOINT RightLowArm
						{
							OFFSET -14.069914 -29.966049 -6.618794
							CHANNELS 3 Xrotation Yrotation Zrotation
							JOINT RightHand
							{
								OFFSET -16.986626 -23.781418 6.844999
								CHANNELS 3 Xrotation Yrotation Zrotation
								End Site
								{
									OFFSET -3.712589 -5.197670 1.496037
								}
							}
						}
					}
				}
			}
		}
	}
	JOINT LeftUpLeg
	{
		OFFSET 9.959793 -0.828506 0.731594
		CHANNELS 3 Xrotation Yrotation Zrotation
		JOINT LeftLowLeg
		{
			OFFSET 10.351288 -46.033867 4.209983
			CHANNELS 3 Xrotation Yrotation Zrotation
			JOINT LeftFoot
			{
				OFFSET 8.508810 -40.842918 -16.125269
				CHANNELS 3 Xrotation Yrotation Zrotation
				JOINT LeftToe
				{
					OFFSET 3.406147 -17.714207 15.302444
					CHANNELS 3 Xrotation Yrotation Zrotation
					End Site
					{
						OFFSET 2.267645 -3.919164 23.217598
					}
				}
			}
		}
	}
	JOINT RightUpLeg
	{
		OFFSET -9.959812 0.828316 -0.731607
		CHANNELS 3 Xrotation Yrotation Zrotation
		JOINT RightLowLeg
		{
			OFFSET -13.397974 -45.341549 2.941240
			CHANNELS 3 Xrotation Yrotation Zrotation
			JOINT RightFoot
			{
				OFFSET -8.242331 -41.082447 -15.648544
				CHANNELS 3 Xrotation Yrotation Zrotation
				JOINT RightToe
				{
					OFFSET -5.243370 -18.992294 13.090337
					CHANNELS 3 Xrotation Yrotation Zrotation
					End Site
					{
						OFFSET -5.551067 -5.922204 22.218668
					}
				}
			}
		}
	}
}
MOTION
Frames: 5
Frame Time: 0.033333
-1.876272 105.914017 -1.111724 3.862238 1.618115 3.276226 -3.473431 -0.189568 0.764304 -6.448268 1.552809 -0.020302 6.420897 -3.527407 -1.100050 -5.322856 -0.035418 3.217021 -0.000001 0.000001 -0.000000 3.341679 -1.124004 -14.552543 5.214091 -3.189696 -40.946906 40.634038 1.458950 -48.500094 0.000002 0.000007 -0.000003 4.534829 1.682499 5.248552 -8.413845 18.886733 10.084784 6.248235 5.676079 10.135921 -0.000000 -0.000002 0.000001 6.728474 -1.135947 -10.336672 -14.758065 2.838530 -0.454063 -3.136866 -3.681657 0.750860 -0.000000 -0.000000 -0.000000 5.313888 -0.032630 10.482919 -11.393296 -2.534879 0.332654 -8.258725 -0.392869 -4.660418 -0.000000 0.000001 -0.000000 
-1.872797 105.914375 -1.110066 3.736642 1.374891 3.376726 -3.237826 -0.204643 0.623438 -6.493458 1.618620 -0.081154 6.267299 -3.425748 -0.955442 -4.698671 -0.021704 3.113045 -0.000001 0.000001 -0.000001 3.358268 -1.177004 -14.680788 5.320401 -2.905523 -41.125679 40.171081 1.803498 -48.093520 -0.000001 0.000004 0.000001 4.436030 1.330795 5.300932 -8.337862 18.697979 10.034963 6.480955 5.237126 9.901685 -0.000000 -0.000000 -0.000001 6.971450 -1.167028 -10.442691 -14.590027 2.893244 -0.532218 -3.474343 -3.641495 0.861732 -0.000000 0.000000 0.000001 4.939121 -0.006680 10.287727 -10.316909 -2.732278 0.411584 -8.194784 -0.358391 -4.648815 -0.000002 0.000001 -0.000000 
-1.865866 105.914818 -1.105934 3.545355 1.552556 3.336153 -3.222832 -0.222764 0.700248 -6.084545 1.566436 -0.042371 5.911425 -3.586576 -1.027166 -4.718521 0.019046 3.059441 -0.000001 0.000000 0.000000 3.402166 -1.050982 -14.758181 5.210076 -2.980887 -41.186314 40.164600 2.387563 -48.087786 0.000002 0.000003 -0.000003 4.398565 1.052853 5.445419 -8.298708 18.663943 9.958138 6.478417 5.023144 9.439893 0.000001 -0.000002 -0.000004 6.855343 -1.206144 -10.459119 -14.147745 2.833540 -0.478583 -3.606142 -3.790836 0.773625 -0.000001 -0.000001 -0.000000 4.947934 0.026603 10.284343 -10.136769 -2.707173 0.549578 -8.146477 -0.609448 -4.749575 -0.000002 0.000001 -0.000000 
-1.857882 105.917686 -1.113044 3.194133 1.229796 3.348741 -2.946829 -0.214785 0.591940 -5.679571 1.498243 -0.019166 5.637087 -3.614230 -0.959855 -4.718523 0.153923 2.866650 -0.000001 0.000001 0.000001 3.272546 -0.934294 -14.822871 5.115276 -2.827928 -41.214301 39.677460 2.821724 -47.695307 -0.000001 -0.000001 0.000002 4.382545 1.605052 5.448693 -7.995129 18.137352 9.798115 6.442809 4.841730 8.898605 -0.000003 -0.000001 -0.000002 6.916097 -1.174785 -10.447660 -14.003694 2.827649 -0.709673 -3.775164 -2.998253 1.152709 0.000001 -0.000001 0.000000 4.910809 -0.011942 10.172220 -9.712407 -2.741453 0.683410 -8.504119 -0.420524 -4.802770 -0.000000 0.000003 0.000001 
-1.842694 105.919807 -1.108053 3.332202 1.263956 3.278402 -3.102591 -0.212294 0.733842 -5.654696 1.461094 0.028473 5.695587 -3.780120 -1.060286 -4.421123 0.172307 2.793483 -0.000000 0.000001 0.000000 3.121809 -0.884847 -15.078809 5.363580 -2.321964 -41.061800 39.348686 3.205637 -47.749395 -0.000000 0.000002 0.000001 4.153092 1.250041 5.671382 -7.731255 17.885709 9.360370 6.460210 4.478345 8.784332 0.000001 0.000003 0.000001 6.506331 -1.249127 -10.496617 -13.180386 2.842090 -0.602478 -3.698403 -3.194990 1.073487 -0.000001 -0.000001 -0.000000 4.636936 0.063809 10.185821 -9.337067 -2.771855 0.725101 -8.698878 -0.056765 -4.629778 -0.000002 0.000003 0.000000 
